<svg width="135.017" height="24.47" viewBox="0 0 135.017 24.47" xmlns="http://www.w3.org/2000/svg"><g id="svgGroup" stroke-linecap="round" fill-rule="evenodd" font-size="9pt" stroke="#ffffff" stroke-width="0.25mm" fill="#ffffff" style="stroke:#ffffff;stroke-width:0.25mm;fill:#ffffff"><path d="M 100.454 24.36 L 112.501 24.36 C 112.829 24.36 113.141 24.313 113.454 24.188 A 3.338 3.338 0 0 0 114.137 23.758 A 1.972 1.972 0 0 0 114.891 22.172 A 0.35 0.35 0 0 1 114.873 22.126 C 114.852 22.066 114.837 21.982 114.813 21.86 A 2.913 2.913 0 0 0 114.813 21.819 C 114.812 21.78 114.81 21.743 114.802 21.694 A 0.949 0.949 0 0 0 114.797 21.672 C 114.5 20.753 113.956 20.231 113.085 20.079 A 3.393 3.393 0 0 0 112.501 20.031 L 102.688 20.031 L 102.688 14.344 L 109.079 14.344 A 1.405 1.405 0 0 0 109.181 14.34 C 109.228 14.337 109.276 14.331 109.325 14.323 A 1.529 1.529 0 0 0 109.454 14.297 L 109.547 14.297 A 0.928 0.928 0 0 1 109.549 14.297 C 109.596 14.281 109.657 14.265 109.719 14.219 L 110.016 14.063 A 2.601 2.601 0 0 0 110.642 13.594 A 1.87 1.87 0 0 0 111.172 12.25 L 111.172 12.188 A 2.16 2.16 0 0 0 111.167 12.052 C 111.163 11.979 111.157 11.906 111.157 11.828 A 0.109 0.109 0 0 1 111.132 11.788 C 111.123 11.764 111.12 11.739 111.11 11.719 A 4.115 4.115 0 0 0 111.065 11.58 C 111.044 11.517 111.022 11.457 110.998 11.394 A 9.374 9.374 0 0 0 110.954 11.281 C 110.532 10.469 109.922 10.016 109.079 10.016 L 102.688 10.016 L 102.688 4.391 L 112.61 4.391 L 113.126 4.344 L 113.251 4.297 A 1.488 1.488 0 0 0 113.316 4.274 C 113.376 4.251 113.425 4.227 113.482 4.204 A 1.929 1.929 0 0 1 113.485 4.203 L 113.532 4.203 C 113.686 4.142 113.809 4.035 113.917 3.942 A 24.049 24.049 0 0 1 113.922 3.938 A 2.321 2.321 0 0 0 114.532 3.379 A 1.827 1.827 0 0 0 114.891 2.266 L 114.891 2.156 C 114.891 2.031 114.86 1.906 114.813 1.766 C 114.813 1.719 114.813 1.688 114.797 1.641 L 114.735 1.438 C 114.344 0.5 113.61 0.031 112.501 0.031 L 100.454 0.031 A 1.496 1.496 0 0 0 100.33 0.037 C 100.283 0.041 100.232 0.047 100.178 0.055 A 2.886 2.886 0 0 0 100.047 0.078 C 99.99 0.093 99.945 0.094 99.889 0.131 A 0.303 0.303 0 0 0 99.876 0.141 A 2.902 2.902 0 0 0 99.258 0.451 C 99.092 0.563 98.949 0.688 98.835 0.824 A 1.555 1.555 0 0 0 98.782 0.891 C 98.485 1.25 98.329 1.688 98.329 2.156 L 98.329 22.125 A 0.737 0.737 0 0 0 98.332 22.186 C 98.34 22.283 98.363 22.42 98.376 22.547 A 2.913 2.913 0 0 0 98.376 22.588 C 98.376 22.627 98.378 22.664 98.387 22.713 A 0.949 0.949 0 0 0 98.391 22.735 C 98.547 23.17 98.78 23.529 99.06 23.778 A 1.985 1.985 0 0 0 99.063 23.781 C 99.454 24.188 99.891 24.36 100.454 24.36 Z M 84.485 24.36 L 84.547 24.36 A 8.975 8.975 0 0 0 85.604 24.293 C 86.232 24.218 86.926 24.08 87.688 23.875 A 10.731 10.731 0 0 0 90.924 22.023 C 92.528 20.648 93.476 18.819 93.765 16.535 A 12.481 12.481 0 0 0 93.86 14.969 L 93.86 2.391 C 93.86 2.156 93.844 1.938 93.813 1.766 A 0.175 0.175 0 0 0 93.81 1.735 C 93.805 1.706 93.793 1.682 93.773 1.651 A 0.884 0.884 0 0 0 93.766 1.641 C 93.501 0.963 93.13 0.501 92.663 0.252 A 1.942 1.942 0 0 0 91.735 0.031 L 91.61 0.031 L 91.344 0.047 A 0.967 0.967 0 0 0 91.2 0.054 A 0.232 0.232 0 0 0 91.094 0.094 C 90.248 0.425 89.738 1.036 89.559 1.933 A 4.082 4.082 0 0 0 89.485 2.735 L 89.485 15.625 A 4.194 4.194 0 0 1 89.065 17.452 A 5.076 5.076 0 0 1 88.954 17.672 C 88.044 19.108 86.732 19.884 85.02 20.013 A 6.968 6.968 0 0 1 84.501 20.031 A 5.901 5.901 0 0 1 82.396 19.665 A 5.335 5.335 0 0 1 80.719 18.641 C 79.916 17.986 79.481 16.808 79.428 15.105 A 11.434 11.434 0 0 1 79.422 14.844 L 79.391 2.172 C 79.391 2.063 79.376 1.938 79.36 1.813 C 79.36 1.755 79.347 1.711 79.308 1.656 A 0.524 0.524 0 0 0 79.297 1.641 A 3.631 3.631 0 0 0 78.902 0.894 C 78.686 0.588 78.434 0.361 78.144 0.212 A 1.993 1.993 0 0 0 77.219 0 C 76.93 0.031 76.73 0.061 76.619 0.106 A 0.437 0.437 0 0 0 76.61 0.11 C 75.563 0.531 75.047 1.235 75.047 2.219 L 75.094 15.36 A 9.3 9.3 0 0 0 76.719 20.656 A 9.92 9.92 0 0 0 80.163 23.434 A 9.92 9.92 0 0 0 84.485 24.36 Z M 9.391 24.36 L 9.454 24.36 A 8.999 8.999 0 0 0 10.511 24.293 C 11.14 24.218 11.838 24.08 12.61 23.875 A 10.702 10.702 0 0 0 15.825 22.037 C 17.788 20.361 18.766 18.005 18.766 14.969 L 18.766 2.391 C 18.766 2.156 18.751 1.938 18.719 1.766 C 18.719 1.719 18.704 1.688 18.688 1.641 C 18.251 0.563 17.563 0.031 16.641 0.031 L 16.516 0.031 L 16.251 0.047 A 0.967 0.967 0 0 0 16.106 0.054 A 0.232 0.232 0 0 0 16.001 0.094 C 15.154 0.425 14.645 1.036 14.465 1.933 A 4.082 4.082 0 0 0 14.391 2.735 L 14.391 15.625 A 4.194 4.194 0 0 1 13.971 17.452 A 5.076 5.076 0 0 1 13.86 17.672 C 12.95 19.108 11.639 19.884 9.926 20.013 A 6.968 6.968 0 0 1 9.407 20.031 A 5.901 5.901 0 0 1 7.302 19.665 A 5.335 5.335 0 0 1 5.626 18.641 A 2.903 2.903 0 0 1 4.782 17.49 C 4.489 16.806 4.344 15.924 4.344 14.844 L 4.344 12.156 C 4.344 12.047 4.329 11.938 4.313 11.828 C 4.313 11.752 4.298 11.72 4.253 11.645 A 4.191 4.191 0 0 0 4.251 11.641 A 3.581 3.581 0 0 0 3.849 10.894 C 3.619 10.575 3.349 10.343 3.037 10.197 A 2.021 2.021 0 0 0 2.172 10.016 C 1.947 10.028 1.772 10.051 1.647 10.092 A 0.607 0.607 0 0 0 1.563 10.125 A 3.073 3.073 0 0 0 0.814 10.532 C 0.278 10.938 0.009 11.494 0.001 12.201 A 2.88 2.88 0 0 0 0.001 12.235 L 0.001 15.36 A 9.184 9.184 0 0 0 1.626 20.656 A 9.92 9.92 0 0 0 5.069 23.434 A 9.92 9.92 0 0 0 9.391 24.36 Z M 41.168 23.578 A 0.308 0.308 0 0 1 41.155 23.564 A 0.14 0.14 0 0 1 41.126 23.516 A 2.524 2.524 0 0 1 41.102 23.477 C 40.798 22.966 39.945 21.199 38.485 18.219 A 5.401 5.401 0 0 1 38.062 18.291 A 4.382 4.382 0 0 1 37.501 18.328 L 28.61 18.328 A 2.133 2.133 0 0 1 28.48 18.324 C 28.323 18.314 28.145 18.29 27.938 18.266 C 26.732 20.754 25.918 22.376 25.521 23.131 A 13.607 13.607 0 0 1 25.313 23.516 A 0.12 0.12 0 0 1 25.298 23.545 C 25.284 23.567 25.262 23.587 25.238 23.608 A 1.037 1.037 0 0 0 25.204 23.641 A 2.661 2.661 0 0 1 24.736 24.03 A 2.009 2.009 0 0 1 23.626 24.36 A 2.594 2.594 0 0 1 23.578 24.359 C 22.923 24.347 22.397 24.086 21.999 23.557 A 3.187 3.187 0 0 1 21.61 22.86 A 0.458 0.458 0 0 0 21.591 22.813 C 21.581 22.793 21.572 22.773 21.567 22.756 A 0.077 0.077 0 0 1 21.563 22.735 L 21.485 22.328 A 0.151 0.151 0 0 1 21.479 22.315 C 21.459 22.264 21.456 22.182 21.47 22.114 A 0.301 0.301 0 0 1 21.485 22.063 C 21.547 21.594 22.032 20.5 22.891 18.766 A 1089.341 1089.341 0 0 0 23.188 18.152 C 25.063 14.282 26.62 11.009 27.86 8.41 A 2634.261 2634.261 0 0 1 27.907 8.313 A 99.786 99.786 0 0 0 28.722 6.633 C 29.267 5.489 29.877 4.187 30.584 2.74 A 158.908 158.908 0 0 1 30.61 2.688 C 31.204 0.891 32.047 0.031 33.188 0.031 L 33.251 0.031 C 34.376 0.031 35.219 0.891 35.829 2.688 C 38.604 8.498 40.195 11.856 40.549 12.741 A 1.055 1.055 0 0 1 40.626 12.969 C 40.641 12.969 40.641 13.016 40.641 13.047 A 1426.748 1426.748 0 0 0 42.024 15.783 A 526.799 526.799 0 0 0 43.547 18.766 C 44.407 20.5 44.891 21.594 44.954 22.063 C 44.985 22.141 44.985 22.235 44.954 22.328 L 44.876 22.735 A 0.069 0.069 0 0 1 44.873 22.751 C 44.869 22.769 44.858 22.791 44.848 22.813 A 0.458 0.458 0 0 0 44.829 22.86 C 44.705 23.137 44.564 23.375 44.408 23.575 A 1.934 1.934 0 0 1 42.813 24.36 C 42.251 24.36 41.719 24.141 41.235 23.641 A 0.689 0.689 0 0 0 41.223 23.629 A 2.85 2.85 0 0 0 41.188 23.597 M 65.501 22.438 L 66.954 23.844 C 67.605 24.496 68.404 24.648 69.378 24.257 A 3.891 3.891 0 0 0 69.469 24.219 A 2.463 2.463 0 0 0 69.633 24.129 C 69.767 24.049 69.876 23.966 69.955 23.889 A 1.123 1.123 0 0 0 69.969 23.875 L 70.047 23.797 C 70.719 23.125 70.844 22.235 70.36 21.203 C 70.329 21.141 70.282 21.094 70.251 21.031 C 70.157 20.938 70.094 20.828 70.047 20.781 L 68.688 19.469 C 69.188 18.766 69.641 17.985 70.001 17.172 L 70.001 17.078 A 0.038 0.038 0 0 1 70.001 17.077 C 70.004 17.072 70.019 17.045 70.047 17.031 C 70.579 15.672 70.938 14.188 71.032 12.563 L 71.032 12.203 L 71.032 11.844 A 13.969 13.969 0 0 0 70.556 8.907 A 12.748 12.748 0 0 0 70.001 7.313 L 70.001 7.266 A 0.015 0.015 0 0 0 70 7.264 C 69.998 7.248 69.973 7.206 69.946 7.097 A 1.428 1.428 0 0 1 69.938 7.063 C 69.329 5.766 68.563 4.61 67.579 3.641 A 10.554 10.554 0 0 0 66.317 2.558 A 11.03 11.03 0 0 0 66.126 2.422 C 65.579 1.969 64.969 1.61 64.344 1.344 A 5.972 5.972 0 0 0 63.093 0.795 A 10.208 10.208 0 0 0 63.001 0.766 C 62.219 0.469 61.422 0.266 60.563 0.141 C 60.016 0.094 59.454 0.078 58.891 0.078 C 58.36 0.078 57.797 0.094 57.235 0.141 A 12.522 12.522 0 0 0 54.922 0.719 C 54.266 0.922 53.672 1.188 53.063 1.531 A 7.846 7.846 0 0 0 52.058 2.134 A 8.413 8.413 0 0 0 51.672 2.422 C 51.157 2.781 50.672 3.172 50.219 3.641 A 11.563 11.563 0 0 0 47.884 7.088 A 12.424 12.424 0 0 0 47.813 7.25 L 47.813 7.313 A 13.825 13.825 0 0 0 46.956 10.333 A 15.344 15.344 0 0 0 46.782 11.844 A 2.185 2.185 0 0 0 46.788 12.04 C 46.791 12.081 46.797 12.124 46.806 12.171 A 1.286 1.286 0 0 0 46.813 12.203 C 46.782 12.313 46.782 12.422 46.782 12.563 A 14.688 14.688 0 0 0 47.231 15.351 A 13.575 13.575 0 0 0 47.813 17.078 L 47.813 17.125 A 0.084 0.084 0 0 0 47.815 17.139 C 47.82 17.167 47.837 17.23 47.876 17.344 A 12.363 12.363 0 0 0 50.13 20.674 A 10.942 10.942 0 0 0 50.219 20.766 C 50.672 21.203 51.157 21.641 51.672 21.985 A 9.427 9.427 0 0 0 52.712 22.681 C 52.762 22.711 52.812 22.741 52.862 22.771 A 72.815 72.815 0 0 1 53.063 22.891 A 24.251 24.251 0 0 0 53.427 23.074 A 10.197 10.197 0 0 0 54.922 23.688 C 55.657 23.938 56.438 24.141 57.235 24.25 A 14.124 14.124 0 0 0 58.791 24.313 A 219.683 219.683 0 0 0 58.891 24.313 A 14.812 14.812 0 0 0 60.563 24.25 A 12.325 12.325 0 0 0 62.857 23.699 A 15.043 15.043 0 0 0 62.891 23.688 C 63.547 23.485 64.141 23.203 64.719 22.891 A 7.367 7.367 0 0 0 65.319 22.555 A 7.092 7.092 0 0 0 65.501 22.438 Z M 120.579 24.36 L 132.626 24.36 A 2.746 2.746 0 0 0 133.569 24.207 C 134.109 24.01 134.517 23.626 134.795 23.068 A 3.314 3.314 0 0 0 134.938 22.735 A 0.509 0.509 0 0 0 134.952 22.696 C 134.968 22.645 134.969 22.607 134.969 22.562 A 4.265 4.265 0 0 0 134.969 22.547 C 134.985 22.375 135.016 22.219 135.016 22.125 C 135.016 21.172 134.454 20.469 133.329 20.094 C 133.155 20.036 132.929 20.032 132.698 20.032 A 39.17 39.17 0 0 0 132.641 20.031 L 122.813 20.031 L 122.813 2.391 C 122.813 2.192 122.802 1.982 122.751 1.799 A 1.059 1.059 0 0 0 122.719 1.703 A 3.355 3.355 0 0 0 122.374 0.958 C 122.172 0.642 121.927 0.408 121.64 0.254 A 1.986 1.986 0 0 0 120.688 0.031 A 1.295 1.295 0 0 0 120.607 0.034 C 120.515 0.04 120.395 0.055 120.266 0.078 A 2.913 2.913 0 0 0 120.225 0.079 C 120.186 0.079 120.149 0.081 120.101 0.09 A 0.949 0.949 0 0 0 120.079 0.094 C 119.174 0.44 118.632 1.034 118.491 1.936 A 3.237 3.237 0 0 0 118.454 2.438 L 118.454 22.172 A 2.012 2.012 0 0 0 118.623 22.994 A 2.113 2.113 0 0 0 118.969 23.531 C 119.391 24.094 119.922 24.36 120.579 24.36 Z M 53.422 17.75 L 53.376 17.703 C 52.344 16.656 51.657 15.422 51.297 13.985 A 15.924 15.924 0 0 1 51.13 12.856 A 6.457 6.457 0 0 1 51.094 12.203 A 8.379 8.379 0 0 1 51.202 10.972 A 24.114 24.114 0 0 1 51.297 10.391 C 51.657 8.969 52.344 7.766 53.376 6.703 L 53.422 6.641 A 10.159 10.159 0 0 1 54.996 5.409 A 5.712 5.712 0 0 1 55.079 5.36 A 11.536 11.536 0 0 1 55.864 4.983 A 8.19 8.19 0 0 1 56.251 4.828 C 57.126 4.563 57.985 4.422 58.782 4.391 A 8.436 8.436 0 0 1 60.112 4.504 A 12.384 12.384 0 0 1 61.547 4.828 A 7.871 7.871 0 0 1 62.274 5.133 A 23.607 23.607 0 0 1 62.735 5.36 A 8.17 8.17 0 0 1 63.017 5.54 A 9.911 9.911 0 0 1 64.376 6.641 L 64.438 6.703 A 7.847 7.847 0 0 1 66.516 10.391 A 8.937 8.937 0 0 1 66.678 11.75 A 10.25 10.25 0 0 1 66.688 12.203 A 9.028 9.028 0 0 1 66.578 13.638 A 8.856 8.856 0 0 1 66.516 13.985 C 66.157 15.422 65.485 16.656 64.438 17.703 L 64.407 17.719 C 64.395 17.719 64.364 17.747 64.328 17.782 A 5.151 5.151 0 0 0 64.297 17.813 A 7.729 7.729 0 0 1 63.137 18.791 C 63.007 18.88 62.876 18.964 62.747 19.04 A 6.227 6.227 0 0 1 62.735 19.047 C 62.36 19.219 61.985 19.422 61.547 19.578 A 15.49 15.49 0 0 1 59.982 19.926 A 7.619 7.619 0 0 1 58.782 20.031 C 57.985 19.985 57.126 19.828 56.251 19.578 A 8.465 8.465 0 0 1 55.536 19.269 C 55.515 19.259 55.494 19.249 55.474 19.239 A 128.365 128.365 0 0 0 55.079 19.047 A 8.056 8.056 0 0 1 53.634 17.952 A 13.391 13.391 0 0 1 53.422 17.75 Z M 33.188 7.266 L 33.251 7.266 A 833.609 833.609 0 0 1 34.458 9.781 A 18575.486 18575.486 0 0 0 35.547 12.063 A 19.338 19.338 0 0 0 35.84 12.711 A 32.689 32.689 0 0 0 36.157 13.36 A 2.9 2.9 0 0 0 36.279 13.726 A 2.138 2.138 0 0 0 36.407 13.985 L 30.032 13.985 A 4.137 4.137 0 0 0 30.2 13.611 A 2.517 2.517 0 0 0 30.282 13.36 C 30.383 13.141 30.489 12.926 30.592 12.711 A 16.179 16.179 0 0 0 30.891 12.063 A 1486.197 1486.197 0 0 0 30.907 12.029 C 31.591 10.6 32.351 9.002 33.188 7.266 Z" vector-effect="non-scaling-stroke"/></g></svg>